<mxfile host="65bd71144e">
    <diagram id="xUnAApZRkFvEIeg4YjPF" name="Page-1">
        <mxGraphModel dx="606" dy="792" grid="1" gridSize="10" guides="1" tooltips="1" connect="1" arrows="1" fold="1" page="1" pageScale="1" pageWidth="827" pageHeight="1169" math="0" shadow="0">
            <root>
                <mxCell id="0"/>
                <mxCell id="1" parent="0"/>
                <mxCell id="4" value="Profiler" style="shape=folder;fontStyle=1;tabWidth=110;tabHeight=30;tabPosition=left;html=1;boundedLbl=1;labelInHeader=1;container=1;collapsible=0;recursiveResize=0;" vertex="1" parent="1">
                    <mxGeometry x="60" y="220" width="440" height="270" as="geometry"/>
                </mxCell>
                <mxCell id="6" value="Gprof Log Analysis" style="shape=folder;fontStyle=1;tabWidth=80;tabHeight=30;tabPosition=left;html=1;boundedLbl=1;" vertex="1" parent="4">
                    <mxGeometry x="30" y="60" width="150" height="80" as="geometry"/>
                </mxCell>
                <mxCell id="9" value="BD Rate Analysis" style="shape=folder;fontStyle=1;tabWidth=80;tabHeight=30;tabPosition=left;html=1;boundedLbl=1;" vertex="1" parent="4">
                    <mxGeometry x="250" y="60" width="150" height="80" as="geometry"/>
                </mxCell>
                <mxCell id="11" style="edgeStyle=none;html=1;exitX=0;exitY=0;exitDx=115;exitDy=30;exitPerimeter=0;" edge="1" parent="4" source="10" target="9">
                    <mxGeometry relative="1" as="geometry"/>
                </mxCell>
                <mxCell id="10" value="VTM Log Analysis" style="shape=folder;fontStyle=1;tabWidth=80;tabHeight=30;tabPosition=left;html=1;boundedLbl=1;" vertex="1" parent="4">
                    <mxGeometry x="145" y="160" width="150" height="80" as="geometry"/>
                </mxCell>
            </root>
        </mxGraphModel>
    </diagram>
</mxfile>